<svg width="48" height="48" viewBox="0 0 48 48" fill="none" xmlns="http://www.w3.org/2000/svg">
<path d="M39.9922 21.242V38C39.9922 39.0609 39.5707 40.0783 38.8206 40.8284C38.0705 41.5786 37.053 42 35.9922 42H12.0082C10.9477 41.9995 9.93075 41.5778 9.18104 40.8277C8.43133 40.0776 8.01018 39.0605 8.01018 38V21.242M15.0042 17.5L16.0042 6M15.0042 17.5C15.0042 23.304 24.0002 23.304 24.0002 17.5M15.0042 17.5C15.0042 23.852 4.69418 22.54 6.13818 17.004L8.22817 8.99C8.45154 8.13406 8.95233 7.3763 9.65221 6.83529C10.3521 6.29428 11.2116 6.00053 12.0962 6H35.9042C36.7888 6.00053 37.6483 6.29428 38.3481 6.83529C39.048 7.3763 39.5488 8.13406 39.7722 8.99L41.8622 17.004C43.3062 22.542 32.9962 23.852 32.9962 17.5M24.0002 17.5V6M24.0002 17.5C24.0002 23.304 32.9962 23.304 32.9962 17.5M32.9962 17.5L31.9962 6" stroke="#1C1C1C" stroke-width="3" stroke-linecap="round" stroke-linejoin="round"/>
</svg>
