<svg width="48" height="48" viewBox="0 0 48 48" fill="none" xmlns="http://www.w3.org/2000/svg">
<g clip-path="url(#clip0_122_1384)">
<path d="M3 42C3 42.4219 3.07812 42.8125 3.23438 43.1719C3.39062 43.5312 3.60156 43.8438 3.86719 44.1094C4.13281 44.375 4.45312 44.5938 4.82812 44.7656C5.20312 44.9375 5.59375 45.0156 6 45H21L27.0234 48H6C5.17188 48 4.39844 47.8438 3.67969 47.5312C2.96094 47.2188 2.32031 46.7891 1.75781 46.2422C1.19531 45.6953 0.765625 45.0625 0.46875 44.3438C0.171875 43.625 0.015625 42.8438 0 42V6C0 5.23438 0.164062 4.49219 0.492188 3.77344C0.820312 3.05469 1.26562 2.41406 1.82812 1.85156C2.39062 1.28906 3.03125 0.84375 3.75 0.515625C4.46875 0.1875 5.21875 0.015625 6 0H39V15.9609L36 14.4609V3H6C5.64062 3 5.28125 3.08594 4.92188 3.25781C4.5625 3.42969 4.24219 3.66406 3.96094 3.96094C3.67969 4.25781 3.45312 4.57812 3.28125 4.92188C3.10938 5.26562 3.01562 5.625 3 6V36.8438C3.45312 36.5781 3.92969 36.375 4.42969 36.2344C4.92969 36.0938 5.45312 36.0156 6 36H18V39H6C5.57812 39 5.1875 39.0781 4.82812 39.2344C4.46875 39.3906 4.15625 39.6016 3.89062 39.8672C3.625 40.1328 3.40625 40.4531 3.23438 40.8281C3.0625 41.2031 2.98438 41.5938 3 42ZM48 23.7891V41.6484L34.5 48.375L21 41.6484V23.7891L34.5 17.0625L48 23.7891ZM34.5 20.4141L25.8516 24.7266L34.5 29.0391L43.1484 24.7266L34.5 20.4141ZM24 39.7969L33 44.2734V31.6406L24 27.1406V39.7969ZM45 39.7969V27.1406L36 31.6406V44.2734L45 39.7969Z" fill="#1C1C1C"/>
</g>
<defs>
<clipPath id="clip0_122_1384">
<rect width="48" height="48" fill="white"/>
</clipPath>
</defs>
</svg>
