<svg width="48" height="48" viewBox="0 0 48 48" fill="none" xmlns="http://www.w3.org/2000/svg">
<path d="M42 9H27V6C27 5.20435 26.6839 4.44129 26.1213 3.87868C25.5587 3.31607 24.7956 3 24 3H6C5.20435 3 4.44129 3.31607 3.87868 3.87868C3.31607 4.44129 3 5.20435 3 6V36C3 36.7957 3.31607 37.5587 3.87868 38.1213C4.44129 38.6839 5.20435 39 6 39H21V42C21 42.7957 21.3161 43.5587 21.8787 44.1213C22.4413 44.6839 23.2044 45 24 45H42C42.7957 45 43.5587 44.6839 44.1213 44.1213C44.6839 43.5587 45 42.7957 45 42V12C45 11.2044 44.6839 10.4413 44.1213 9.87868C43.5587 9.31607 42.7957 9 42 9ZM6 22.5H15.255L11.385 26.385L13.5 28.5L21 21L13.5 13.5L11.385 15.615L15.255 19.5H6V6H24V36H6V22.5ZM24 42V39C24.7956 39 25.5587 38.6839 26.1213 38.1213C26.6839 37.5587 27 36.7957 27 36V12H42V25.5H32.745L36.615 21.615L34.5 19.5L27 27L34.5 34.5L36.615 32.385L32.745 28.5H42V42H24Z" fill="#1C1C1C"/>
</svg>
