<svg width="11" height="8" viewBox="0 0 11 8" fill="none" xmlns="http://www.w3.org/2000/svg">
<path d="M0 0.5C0 0.367392 0.0526784 0.240215 0.146447 0.146447C0.240215 0.0526784 0.367392 0 0.5 0H10.5C10.6326 0 10.7598 0.0526784 10.8536 0.146447C10.9473 0.240215 11 0.367392 11 0.5C11 0.632608 10.9473 0.759785 10.8536 0.853553C10.7598 0.947322 10.6326 1 10.5 1H0.5C0.367392 1 0.240215 0.947322 0.146447 0.853553C0.0526784 0.759785 0 0.632608 0 0.5ZM1.66667 3.83333C1.66667 3.70072 1.71935 3.57355 1.81311 3.47978C1.90688 3.38601 2.03406 3.33333 2.16667 3.33333H8.83333C8.96594 3.33333 9.09312 3.38601 9.18689 3.47978C9.28066 3.57355 9.33333 3.70072 9.33333 3.83333C9.33333 3.96594 9.28066 4.09312 9.18689 4.18689C9.09312 4.28065 8.96594 4.33333 8.83333 4.33333H2.16667C2.03406 4.33333 1.90688 4.28065 1.81311 4.18689C1.71935 4.09312 1.66667 3.96594 1.66667 3.83333ZM3.66667 7.16667C3.66667 7.03406 3.71935 6.90688 3.81311 6.81311C3.90688 6.71934 4.03406 6.66667 4.16667 6.66667H6.83333C6.96594 6.66667 7.09312 6.71934 7.18689 6.81311C7.28065 6.90688 7.33333 7.03406 7.33333 7.16667C7.33333 7.29927 7.28065 7.42645 7.18689 7.52022C7.09312 7.61399 6.96594 7.66667 6.83333 7.66667H4.16667C4.03406 7.66667 3.90688 7.61399 3.81311 7.52022C3.71935 7.42645 3.66667 7.29927 3.66667 7.16667Z" fill="#1C1C1C"/>
</svg>
