<svg width="20" height="28" viewBox="0 0 20 28" fill="none" xmlns="http://www.w3.org/2000/svg">
<path d="M10 21.9974C9.30139 21.9976 8.62462 21.7539 8.08644 21.3085C7.54826 20.863 7.18241 20.2437 7.052 19.5574C5.09026 18.9511 3.3627 17.7557 2.104 16.1334C1.15377 14.9098 0.500848 13.4821 0.196735 11.9629C-0.107378 10.4438 -0.0543627 8.8748 0.351598 7.37966C0.757559 5.88453 1.50536 4.50416 2.53602 3.34745C3.56668 2.19074 4.85201 1.28933 6.29061 0.714302C7.72922 0.139279 9.28175 -0.0936208 10.8258 0.0339732C12.3698 0.161567 13.863 0.646165 15.1877 1.44954C16.5124 2.25292 17.6323 3.3531 18.4591 4.66331C19.2859 5.97352 19.797 7.45791 19.952 8.99941C20.006 9.54941 19.552 9.99741 19 9.99741C18.448 9.99741 18.006 9.54741 17.94 8.99941C17.7615 7.58507 17.2083 6.24412 16.3377 5.1153C15.4671 3.98649 14.3106 3.11081 12.988 2.57889C11.6654 2.04696 10.2247 1.87811 8.81498 2.0898C7.40523 2.30149 6.07765 2.88604 4.96961 3.78295C3.86157 4.67987 3.01332 5.85657 2.51263 7.19131C2.01194 8.52604 1.877 9.97032 2.12177 11.3747C2.36654 12.7791 2.98212 14.0926 3.90484 15.1792C4.82755 16.2659 6.02386 17.0862 7.37 17.5554C7.62449 17.0911 7.99733 16.7025 8.45064 16.4289C8.90395 16.1553 9.42159 16.0066 9.95098 15.9978C10.4804 15.989 11.0026 16.1205 11.4648 16.3789C11.9269 16.6373 12.3124 17.0134 12.5822 17.469C12.8519 17.9246 12.9963 18.4435 13.0006 18.9729C13.0049 19.5023 12.8691 20.0235 12.6068 20.4834C12.3445 20.9434 11.9652 21.3257 11.5074 21.5916C11.0495 21.8575 10.5295 21.9975 10 21.9974ZM2 18.9974V18.9434C1.45314 18.4536 0.952369 17.9147 0.504 17.3334C0.175431 17.8262 6.45397e-05 18.4052 0 18.9974V19.9974C0 23.9394 3.72 27.9974 10 27.9974C16.28 27.9974 20 23.9394 20 19.9974V18.9974C20 18.2018 19.6839 17.4387 19.1213 16.8761C18.5587 16.3135 17.7956 15.9974 17 15.9974H14C14.438 16.5774 14.75 17.2574 14.9 17.9974H17C17.2652 17.9974 17.5196 18.1028 17.7071 18.2903C17.8946 18.4778 18 18.7322 18 18.9974V19.9974C18 22.8734 15.136 25.9974 10 25.9974C4.864 25.9974 2 22.8734 2 19.9974V18.9974ZM10 13.9974C8.85563 13.9974 7.74587 14.3899 6.856 15.1094C5.98159 14.5737 5.25963 13.8221 4.75948 12.9269C4.25933 12.0317 3.99779 11.0229 4 9.99741C4.00029 8.95137 4.27406 7.92357 4.79414 7.01598C5.31421 6.10839 6.06253 5.35253 6.96487 4.82339C7.86721 4.29424 8.8922 4.01019 9.93819 3.99942C10.9842 3.98864 12.0148 4.25151 12.9279 4.76195C13.8409 5.2724 14.6046 6.01267 15.1433 6.90936C15.682 7.80604 15.9768 8.82798 15.9987 9.87379C16.0205 10.9196 15.7686 11.953 15.2678 12.8714C14.7671 13.7898 14.0349 14.5613 13.144 15.1094C12.2541 14.3899 11.1444 13.9974 10 13.9974ZM6 9.99741C6 11.0583 6.42143 12.0757 7.17157 12.8258C7.92172 13.576 8.93913 13.9974 10 13.9974C11.0609 13.9974 12.0783 13.576 12.8284 12.8258C13.5786 12.0757 14 11.0583 14 9.99741C14 8.93654 13.5786 7.91913 12.8284 7.16898C12.0783 6.41883 11.0609 5.99741 10 5.99741C8.93913 5.99741 7.92172 6.41883 7.17157 7.16898C6.42143 7.91913 6 8.93654 6 9.99741Z" fill="#E8E8E8"/>
</svg>
