<svg width="159" height="40" viewBox="0 0 159 40" fill="none" xmlns="http://www.w3.org/2000/svg">
<path d="M20.0012 20.0003L26.6675 26.6665L20.0012 33.334L13.3337 26.6665L20.0012 20.0003ZM6.6675 6.6665L13.3337 13.3328L6.6675 20.0003L0 13.3315L6.6675 6.6665ZM33.3337 6.6665L40 13.3328L33.3337 20.0003L26.6663 13.3328L20.0012 20.0003L13.3337 13.3328L20.0012 6.6665L26.6663 13.3328L33.3337 6.6665Z" fill="#E8E8E8"/>
<path d="M54.6432 26.3335V13.0529H57.049V24.3168H62.8982V26.3335H54.6432ZM76.336 19.6932C76.336 21.1241 76.068 22.3497 75.5319 23.37C75.0002 24.3859 74.2739 25.1641 73.3531 25.7045C72.4366 26.2449 71.3969 26.5151 70.234 26.5151C69.071 26.5151 68.0292 26.2449 67.1083 25.7045C66.1918 25.1598 65.4656 24.3794 64.9295 23.3635C64.3977 22.3433 64.1319 21.1198 64.1319 19.6932C64.1319 18.2622 64.3977 17.0388 64.9295 16.0228C65.4656 15.0026 66.1918 14.2223 67.1083 13.6819C68.0292 13.1415 69.071 12.8713 70.234 12.8713C71.3969 12.8713 72.4366 13.1415 73.3531 13.6819C74.2739 14.2223 75.0002 15.0026 75.5319 16.0228C76.068 17.0388 76.336 18.2622 76.336 19.6932ZM73.9173 19.6932C73.9173 18.6859 73.7595 17.8364 73.4439 17.1447C73.1326 16.4487 72.7003 15.9234 72.1469 15.5689C71.5936 15.2101 70.9559 15.0307 70.234 15.0307C69.512 15.0307 68.8743 15.2101 68.321 15.5689C67.7676 15.9234 67.3331 16.4487 67.0176 17.1447C66.7063 17.8364 66.5507 18.6859 66.5507 19.6932C66.5507 20.7005 66.7063 21.5521 67.0176 22.2481C67.3331 22.9398 67.7676 23.4651 68.321 23.8239C68.8743 24.1784 69.512 24.3557 70.234 24.3557C70.9559 24.3557 71.5936 24.1784 72.1469 23.8239C72.7003 23.4651 73.1326 22.9398 73.4439 22.2481C73.7595 21.5521 73.9173 20.7005 73.9173 19.6932ZM87.5075 17.2938C87.3995 16.9437 87.2503 16.6302 87.0601 16.3536C86.8742 16.0726 86.6494 15.8326 86.3857 15.6338C86.1263 15.4349 85.828 15.2858 85.4908 15.1863C85.1536 15.0826 84.7861 15.0307 84.3884 15.0307C83.6751 15.0307 83.0396 15.2101 82.4819 15.5689C81.9242 15.9277 81.4854 16.4552 81.1655 17.1512C80.8499 17.8429 80.6921 18.6859 80.6921 19.6802C80.6921 20.6832 80.8499 21.5327 81.1655 22.2287C81.4811 22.9247 81.9199 23.4543 82.4819 23.8174C83.0439 24.1763 83.6967 24.3557 84.4403 24.3557C85.1147 24.3557 85.6983 24.226 86.1911 23.9666C86.6883 23.7072 87.0709 23.3397 87.3389 22.8642C87.607 22.3843 87.741 21.8223 87.741 21.1782L88.2857 21.2625H84.6802V19.3819H90.069V20.9771C90.069 22.1141 89.8269 23.0976 89.3427 23.9277C88.8585 24.7577 88.1928 25.3975 87.3454 25.8471C86.4981 26.2924 85.5254 26.5151 84.4273 26.5151C83.2039 26.5151 82.1296 26.2405 81.2044 25.6915C80.2836 25.1382 79.5638 24.3535 79.045 23.3376C78.5306 22.3173 78.2733 21.1068 78.2733 19.7061C78.2733 18.634 78.4247 17.6764 78.7273 16.8334C79.0342 15.9904 79.4622 15.2749 80.0112 14.687C80.5603 14.0947 81.2044 13.6451 81.9437 13.3382C82.6829 13.0269 83.487 12.8713 84.356 12.8713C85.0909 12.8713 85.7761 12.9794 86.4116 13.1955C87.0471 13.4074 87.6113 13.71 88.1041 14.1034C88.6013 14.4968 89.0098 14.9637 89.3297 15.5041C89.6496 16.0445 89.8593 16.6411 89.9587 17.2938H87.5075ZM104.262 19.6932C104.262 21.1241 103.994 22.3497 103.458 23.37C102.926 24.3859 102.2 25.1641 101.279 25.7045C100.363 26.2449 99.3232 26.5151 98.1603 26.5151C96.9973 26.5151 95.9555 26.2449 95.0346 25.7045C94.1181 25.1598 93.3918 24.3794 92.8558 23.3635C92.324 22.3433 92.0582 21.1198 92.0582 19.6932C92.0582 18.2622 92.324 17.0388 92.8558 16.0228C93.3918 15.0026 94.1181 14.2223 95.0346 13.6819C95.9555 13.1415 96.9973 12.8713 98.1603 12.8713C99.3232 12.8713 100.363 13.1415 101.279 13.6819C102.2 14.2223 102.926 15.0026 103.458 16.0228C103.994 17.0388 104.262 18.2622 104.262 19.6932ZM101.844 19.6932C101.844 18.6859 101.686 17.8364 101.37 17.1447C101.059 16.4487 100.627 15.9234 100.073 15.5689C99.5199 15.2101 98.8822 15.0307 98.1603 15.0307C97.4383 15.0307 96.8006 15.2101 96.2473 15.5689C95.6939 15.9234 95.2594 16.4487 94.9438 17.1447C94.6326 17.8364 94.477 18.6859 94.477 19.6932C94.477 20.7005 94.6326 21.5521 94.9438 22.2481C95.2594 22.9398 95.6939 23.4651 96.2473 23.8239C96.8006 24.1784 97.4383 24.3557 98.1603 24.3557C98.8822 24.3557 99.5199 24.1784 100.073 23.8239C100.627 23.4651 101.059 22.9398 101.37 22.2481C101.686 21.5521 101.844 20.7005 101.844 19.6932ZM106.537 26.3335V13.0529H108.943V18.6751H115.097V13.0529H117.509V26.3335H115.097V20.6918H108.943V26.3335H106.537ZM120.125 26.3335V13.0529H128.763V15.0696H122.531V18.6751H128.316V20.6918H122.531V24.3168H128.815V26.3335H120.125ZM131.218 26.3335V13.0529H136.198C137.218 13.0529 138.074 13.2301 138.766 13.5846C139.462 13.9391 139.987 14.4363 140.341 15.0761C140.7 15.7116 140.88 16.453 140.88 17.3003C140.88 18.152 140.698 18.8912 140.335 19.5181C139.976 20.1406 139.447 20.6227 138.746 20.9642C138.046 21.3014 137.186 21.47 136.165 21.47H132.618V19.4727H135.841C136.438 19.4727 136.926 19.3906 137.307 19.2263C137.687 19.0577 137.968 18.8134 138.15 18.4935C138.336 18.1693 138.429 17.7716 138.429 17.3003C138.429 16.8291 138.336 16.4271 138.15 16.0942C137.964 15.757 137.681 15.5019 137.3 15.329C136.92 15.1517 136.429 15.0631 135.828 15.0631H133.623V26.3335H131.218ZM138.078 20.3157L141.366 26.3335H138.681L135.452 20.3157H138.078ZM143.094 26.3335V13.0529H151.732V15.0696H145.5V18.6751H151.284V20.6918H145.5V24.3168H151.784V26.3335H143.094ZM155.529 26.4762C155.135 26.4762 154.798 26.3378 154.517 26.0611C154.236 25.7845 154.098 25.4473 154.102 25.0495C154.098 24.6604 154.236 24.3276 154.517 24.0509C154.798 23.7742 155.135 23.6359 155.529 23.6359C155.909 23.6359 156.24 23.7742 156.521 24.0509C156.806 24.3276 156.951 24.6604 156.955 25.0495C156.951 25.3132 156.882 25.5532 156.748 25.7693C156.618 25.9855 156.445 26.1584 156.229 26.2881C156.017 26.4135 155.784 26.4762 155.529 26.4762Z" fill="#E8E8E8"/>
</svg>
