<svg width="44" height="26" viewBox="0 0 44 26" fill="none" xmlns="http://www.w3.org/2000/svg">
<rect width="43.5" height="25.7778" rx="4.02778" fill="#FFFEFD"/>
<path d="M24.9164 7.62305H18.9053V18.1558H24.9164V7.62305Z" fill="#7673C0"/>
<path d="M19.2868 12.8905C19.2857 11.876 19.5214 10.8745 19.976 9.96188C20.4306 9.04931 21.0922 8.24953 21.9107 7.62313C20.8973 6.84656 19.6802 6.36366 18.3985 6.22962C17.1168 6.09557 15.8224 6.31579 14.663 6.86511C13.5037 7.41444 12.5262 8.27068 11.8424 9.33602C11.1585 10.4014 10.7959 11.6328 10.7959 12.8895C10.7959 14.1463 11.1585 15.3777 11.8424 16.4431C12.5262 17.5084 13.5037 18.3646 14.663 18.914C15.8224 19.4633 17.1168 19.6835 18.3985 19.5495C19.6802 19.4154 20.8973 18.9325 21.9107 18.156C21.0925 17.5298 20.431 16.7303 19.9764 15.818C19.5218 14.9058 19.286 13.9047 19.2868 12.8905Z" fill="#EB001B"/>
<path d="M33.0246 12.8912C33.0243 14.1478 32.6615 15.3789 31.9776 16.4439C31.2937 17.509 30.3164 18.365 29.1572 18.9142C27.9981 19.4633 26.7038 19.6835 25.4225 19.5496C24.141 19.4156 22.9241 18.933 21.9106 18.1567C22.7286 17.53 23.3899 16.7303 23.8446 15.818C24.2993 14.9057 24.5356 13.9046 24.5356 12.8903C24.5356 11.876 24.2993 10.8749 23.8446 9.96266C23.3899 9.05035 22.7286 8.25065 21.9106 7.6239C22.9241 6.8471 24.1412 6.36396 25.4229 6.22972C26.7046 6.09549 27.9992 6.31556 29.1587 6.86481C30.3182 7.41406 31.2958 8.27029 31.9798 9.33564C32.6637 10.401 33.0265 11.6325 33.0265 12.8894L33.0246 12.8912Z" fill="#00A1DF"/>
</svg>
