<svg width="44" height="26" viewBox="0 0 44 26" fill="none" xmlns="http://www.w3.org/2000/svg">
<g clip-path="url(#clip0_122_1587)">
<path d="M41.76 0H1.74C0.779024 0 0 0.769407 0 1.71852V24.0593C0 25.0084 0.779024 25.7778 1.74 25.7778H41.76C42.721 25.7778 43.5 25.0084 43.5 24.0593V1.71852C43.5 0.769407 42.721 0 41.76 0Z" fill="white"/>
<path d="M10.4902 25.7786H41.7602C42.7216 25.7786 43.5002 25.0109 43.5002 24.0623V14.4785C43.5002 14.4785 31.8422 22.2849 10.4902 25.7786Z" fill="#E6772F"/>
<path fill-rule="evenodd" clip-rule="evenodd" d="M7.95555 12.8108C7.62886 13.0867 7.213 13.2074 6.54832 13.2074H6.27253V9.91643H6.54832C7.213 9.91643 7.61277 10.0286 7.95555 10.3181C8.30877 10.6176 8.52105 11.0786 8.52105 11.5563C8.52105 12.0358 8.30877 12.514 7.95555 12.8108ZM6.75408 9.07307H5.24463V14.0508H6.74538C7.54317 14.0508 8.11998 13.8712 8.62458 13.4751C9.22488 13.0055 9.58071 12.297 9.58071 11.5632C9.58071 10.0939 8.41926 9.07307 6.75408 9.07307ZM10.0544 9.07307H11.078V14.0508H10.0544V9.07307ZM13.591 10.9811C12.9733 10.7667 12.7927 10.6245 12.7927 10.3551C12.7927 10.0423 13.1155 9.80516 13.5592 9.80516C13.8668 9.80516 14.1204 9.92159 14.3901 10.206L14.9242 9.54351C14.4931 9.18171 13.9444 8.98542 13.3787 8.99058C12.4465 8.99058 11.7361 9.60323 11.7361 10.4135C11.7361 11.1014 12.0663 11.4506 13.0298 11.7819C13.4331 11.9142 13.6375 12.0049 13.741 12.0659C13.9464 12.1913 14.0486 12.3709 14.0486 12.5788C14.0486 12.984 13.7093 13.2813 13.2504 13.2813C12.7619 13.2813 12.3669 13.0502 12.1302 12.6162L11.4682 13.222C11.9415 13.8776 12.5087 14.1706 13.2908 14.1706C14.3566 14.1706 15.1078 13.4961 15.1078 12.5355C15.1078 11.7436 14.7598 11.3845 13.591 10.9811ZM15.4306 11.5632C15.4306 13.027 16.6464 14.1612 18.2111 14.1612C18.6526 14.1612 19.0306 14.0787 19.4965 13.8712V12.7271C19.085 13.118 18.7235 13.2727 18.2564 13.2727C17.2224 13.2727 16.4898 12.5651 16.4898 11.5563C16.4898 10.6026 17.2458 9.84769 18.2111 9.84769C18.6983 9.84769 19.0707 10.011 19.4965 10.4075V9.26469C19.0467 9.04987 18.6774 8.96094 18.2324 8.96094C16.6764 8.96094 15.4306 10.1171 15.4306 11.5632ZM27.8176 12.4147L26.413 9.07307H25.2933L27.5258 14.1762H28.0765L30.3524 9.07307H29.2414L27.8176 12.4147ZM30.8183 14.0508H33.731V13.2074H31.8462V11.8635H33.6593V11.0206H31.8462V9.91643H33.731V9.07307H30.8183V14.0508ZM35.7368 11.3621H35.4389V9.85671H35.7538C36.3954 9.85671 36.7391 10.1111 36.7391 10.5957C36.7391 11.094 36.3954 11.3621 35.7368 11.3621ZM37.7966 10.5415C37.7966 9.60968 37.1201 9.07307 35.9347 9.07307H34.4092V14.0508H35.4389V12.0495H35.5724L36.9914 14.0508H38.2546L36.5977 11.9529C37.372 11.8034 37.7966 11.3028 37.7966 10.5415Z" fill="#1A1919"/>
<path fill-rule="evenodd" clip-rule="evenodd" d="M25.4383 11.5754C25.4383 13.0082 24.2099 14.17 22.693 14.17C21.1762 14.17 19.9478 13.0082 19.9478 11.5754C19.9478 10.1422 21.1762 8.98047 22.6926 8.98047C24.2099 8.98047 25.4383 10.1422 25.4383 11.5754Z" fill="#E6772F"/>
</g>
<defs>
<clipPath id="clip0_122_1587">
<rect width="43.5" height="25.7778" rx="4.02778" fill="white"/>
</clipPath>
</defs>
</svg>
