<svg width="44" height="26" viewBox="0 0 44 26" fill="none" xmlns="http://www.w3.org/2000/svg">
<rect width="43.5" height="25.7778" rx="4.02778" fill="#FFFEFD"/>
<g clip-path="url(#clip0_122_1573)">
<path d="M12.6681 8.80211C12.3206 9.20876 11.7645 9.52949 11.2085 9.48367C11.139 8.93384 11.4112 8.34965 11.7298 7.98883C12.0773 7.57073 12.6855 7.27291 13.1778 7.25C13.2357 7.82274 13.0098 8.38402 12.6681 8.80211ZM13.172 9.59249C12.3669 9.54667 11.6776 10.0449 11.2954 10.0449C10.9073 10.0449 10.3223 9.6154 9.68512 9.62685C8.85684 9.63831 8.08647 10.1022 7.66364 10.8411C6.79481 12.3187 7.43775 14.5066 8.27762 15.7093C8.68886 16.3049 9.1812 16.9579 9.82993 16.935C10.4439 16.912 10.6872 16.5398 11.4286 16.5398C12.1758 16.5398 12.3901 16.935 13.0388 16.9235C13.7107 16.912 14.1335 16.3279 14.5448 15.7322C15.014 15.0564 15.2051 14.3977 15.2167 14.3634C15.2051 14.3519 13.9192 13.8651 13.9076 12.3989C13.8961 11.1732 14.9213 10.589 14.9676 10.5547C14.3884 9.70704 13.4848 9.6154 13.172 9.59249ZM17.8232 7.93156V16.8605H19.2249V13.8078H21.1653C22.9377 13.8078 24.183 12.6051 24.183 10.864C24.183 9.12284 22.9609 7.93156 21.2116 7.93156H17.8232ZM19.2249 9.09994H20.8409C22.0573 9.09994 22.7523 9.7414 22.7523 10.8697C22.7523 11.998 22.0573 12.6452 20.8351 12.6452H19.2249V9.09994ZM26.7432 16.9292C27.6236 16.9292 28.4403 16.4882 28.811 15.7895H28.84V16.8605H30.1374V12.4161C30.1374 11.1274 29.0948 10.297 27.4904 10.297C26.0018 10.297 24.9013 11.1389 24.8607 12.2958H26.1234C26.2277 11.746 26.7432 11.3851 27.4498 11.3851C28.3071 11.3851 28.7878 11.7803 28.7878 12.5077V13.0003L27.0386 13.1034C25.411 13.2007 24.5306 13.8594 24.5306 15.0048C24.5306 16.1618 25.4399 16.9292 26.7432 16.9292ZM27.1197 15.8697C26.3725 15.8697 25.8975 15.5146 25.8975 14.9705C25.8975 14.4092 26.3551 14.0827 27.2297 14.0312L28.7878 13.9338V14.4378C28.7878 15.274 28.0696 15.8697 27.1197 15.8697ZM31.8693 19.2889C33.2362 19.2889 33.8792 18.7734 34.441 17.2099L36.9027 10.3829H35.4778L33.827 15.6578H33.7981L32.1473 10.3829H30.6819L33.0567 16.8834L32.9293 17.2786C32.7149 17.9487 32.3674 18.2064 31.7476 18.2064C31.6376 18.2064 31.4233 18.195 31.3364 18.1835V19.2545C31.4175 19.2774 31.765 19.2889 31.8693 19.2889Z" fill="black"/>
</g>
<defs>
<clipPath id="clip0_122_1573">
<rect width="30.6111" height="12.8889" fill="white" transform="translate(6.44434 6.44531)"/>
</clipPath>
</defs>
</svg>
