<svg width="44" height="26" viewBox="0 0 44 26" fill="none" xmlns="http://www.w3.org/2000/svg">
<rect width="43.5" height="25.7778" rx="4.02778" fill="#FFFEFD"/>
<path d="M24.4452 7.61133H18.5732V18.1654H24.4452V7.61133Z" fill="#FF5A00"/>
<path d="M18.9643 12.8888C18.9643 10.7446 19.9719 8.84143 21.5181 7.6118C20.3802 6.71674 18.9448 6.17578 17.3791 6.17578C13.67 6.17578 10.6689 9.17818 10.6689 12.8888C10.6689 16.5995 13.67 19.6019 17.3791 19.6019C18.9448 19.6019 20.3802 19.0609 21.5181 18.1659C19.9698 16.9536 18.9643 15.0331 18.9643 12.8888Z" fill="#EB001B"/>
<path d="M32.3667 12.8888C32.3667 16.5995 29.3656 19.6019 25.6566 19.6019C24.0909 19.6019 22.6555 19.0609 21.5176 18.1659C23.0833 16.9341 24.0713 15.0331 24.0713 12.8888C24.0713 10.7446 23.0637 8.84143 21.5176 7.6118C22.6533 6.71674 24.0887 6.17578 25.6544 6.17578C29.3656 6.17578 32.3667 9.19775 32.3667 12.8888Z" fill="#F79E1B"/>
</svg>
