<svg width="44" height="26" viewBox="0 0 44 26" fill="none" xmlns="http://www.w3.org/2000/svg">
<rect width="43.5" height="25.7778" rx="4.02778" fill="#FFFEFD"/>
<g clip-path="url(#clip0_122_1619)">
<path d="M30.746 3.71094H12.5762V21.9465H30.746V15.9283C30.8181 15.824 30.8538 15.6905 30.8538 15.5273C30.8538 15.3406 30.8181 15.2249 30.746 15.1275" fill="url(#paint0_radial_122_1619)"/>
<path d="M14.2135 11.6012L13.864 10.7494L13.5164 11.6012M21.914 11.262C21.8438 11.3046 21.7608 11.306 21.6614 11.306H21.041V10.8315H21.6698C21.7588 10.8315 21.8517 10.8355 21.912 10.87C21.9783 10.9011 22.0192 10.9674 22.0192 11.0589C22.0192 11.1523 21.9803 11.2274 21.914 11.262ZM26.3399 11.6012L25.9865 10.7494L25.635 11.6012H26.3399ZM18.0897 12.5231H17.5662L17.5643 10.8498L16.8237 12.5231H16.3753L15.6329 10.8483V12.5231H14.5941L14.3979 12.0466H13.3346L13.1364 12.5231H12.5817L13.4962 10.3865H14.255L15.1236 12.4095V10.3865H15.9571L16.6254 11.836L17.2394 10.3865H18.0897L18.0897 12.5231ZM20.1764 12.5231H18.4704V10.3865H20.1764V10.8315H18.9811V11.2166H20.1477V11.6546H18.9811V12.0812H20.1764V12.5231ZM22.5818 10.962C22.5818 11.3026 22.3545 11.4786 22.222 11.5315C22.3337 11.574 22.4292 11.6491 22.4746 11.7114C22.5467 11.8177 22.5592 11.9126 22.5592 12.1034V12.5231H22.0441L22.0421 12.2537C22.0421 12.1251 22.0544 11.9402 21.9615 11.8374C21.8869 11.7623 21.7731 11.746 21.5893 11.746H21.041V12.5231H20.5304V10.3865H21.705C21.966 10.3865 22.1583 10.3934 22.3234 10.4889C22.485 10.5843 22.5818 10.7237 22.5818 10.962ZM23.3991 12.5231H22.878V10.3865H23.3991V12.5231ZM29.4445 12.5231H28.7208L27.7528 10.9195V12.5231H26.7127L26.514 12.0466H25.4531L25.2603 12.5231H24.6627C24.4145 12.5231 24.1002 12.4682 23.9222 12.2868C23.7427 12.1054 23.6493 11.8597 23.6493 11.4711C23.6493 11.1543 23.7051 10.8646 23.9246 10.6357C24.0897 10.4652 24.3483 10.3865 24.7002 10.3865H25.1946V10.8444H24.7106C24.5242 10.8444 24.419 10.8721 24.3176 10.9709C24.2305 11.0609 24.1708 11.231 24.1708 11.4549C24.1708 11.6838 24.2163 11.8489 24.3112 11.9567C24.3898 12.0412 24.5327 12.0669 24.6671 12.0669H24.8965L25.6163 10.3866H26.3815L27.2461 12.4075V10.3866H28.0237L28.9214 11.8746V10.3866H29.4445V12.5231ZM12.5757 12.9428H13.4483L13.6451 12.4682H14.0856L14.2818 12.9428H15.9987V12.58L16.1519 12.9443H17.0432L17.1964 12.5746V12.9428H21.4632L21.4612 12.1638H21.5437C21.6015 12.1658 21.6184 12.1711 21.6184 12.2666V12.9428H23.8252V12.7615C24.0032 12.8568 24.28 12.9428 24.6443 12.9428H25.5727L25.7714 12.4682H26.2119L26.4062 12.9428H28.1952V12.492L28.4661 12.9428H29.8998V9.96289H28.481V10.3148L28.2823 9.96289H26.8264V10.3148L26.644 9.96289H24.6774C24.3483 9.96289 24.0589 10.0088 23.8252 10.1369V9.96289H22.4681V10.1369C22.3194 10.0049 22.1167 9.96289 21.8913 9.96289H16.9334L16.6008 10.7326L16.2591 9.96289H14.6975V10.3148L14.526 9.96289H13.1942L12.5757 11.3797L12.5757 12.9428Z" fill="white"/>
<path d="M30.7455 14.5205H29.8148C29.7218 14.5205 29.6601 14.524 29.6081 14.5592C29.5542 14.5938 29.5335 14.6451 29.5335 14.7129C29.5335 14.7935 29.579 14.8484 29.6452 14.8721C29.699 14.8908 29.7569 14.8963 29.842 14.8963L30.1188 14.9037C30.3981 14.9106 30.5845 14.9586 30.6982 15.0757C30.7189 15.092 30.7313 15.1103 30.7455 15.1286M30.7455 15.9295C30.6215 16.1109 30.3798 16.2029 30.0525 16.2029H29.0663V15.7446H30.0485C30.146 15.7446 30.2141 15.7318 30.2552 15.6917C30.2908 15.6586 30.3156 15.6106 30.3156 15.5523C30.3156 15.4901 30.2908 15.4406 30.2532 15.411C30.2161 15.3784 30.1622 15.3635 30.0733 15.3635C29.5937 15.3472 28.9955 15.3784 28.9955 14.7021C28.9955 14.3921 29.1923 14.0658 29.7282 14.0658H30.7455V13.6406H29.8003C29.5151 13.6406 29.3079 13.7089 29.1612 13.8151V13.6406H27.7632C27.5396 13.6406 27.2772 13.696 27.1531 13.8151V13.6406H24.6566V13.8151C24.458 13.6718 24.1227 13.6406 23.968 13.6406H22.3213V13.8151C22.1641 13.6629 21.8146 13.6406 21.6015 13.6406H19.7586L19.3369 14.097L18.9419 13.6406H16.189V16.6226H18.8901L19.3246 16.159L19.734 16.6226L21.399 16.6241V15.9226H21.5627C21.7836 15.926 22.0441 15.9171 22.274 15.8178V16.6225H23.6473V15.8453H23.7136C23.7981 15.8453 23.8064 15.8488 23.8064 15.9333V16.6225H27.9783C28.2432 16.6225 28.52 16.5547 28.6733 16.4316V16.6225H29.9966C30.272 16.6225 30.5409 16.5839 30.7455 16.485V15.9295ZM28.7084 15.0757C28.8078 15.1787 28.8611 15.3086 28.8611 15.5285C28.8611 15.9883 28.5739 16.2029 28.0589 16.2029H27.0642V15.7446H28.0549C28.1517 15.7446 28.2204 15.7318 28.2635 15.6917C28.2986 15.6586 28.3238 15.6106 28.3238 15.5523C28.3238 15.4901 28.2965 15.4406 28.2615 15.411C28.2224 15.3784 28.1685 15.3635 28.0796 15.3635C27.602 15.3472 27.0039 15.3784 27.0039 14.7021C27.0039 14.3921 27.1987 14.0658 27.7341 14.0658H28.7579V14.5207H27.8211C27.7282 14.5207 27.6678 14.5242 27.6164 14.5593C27.5605 14.5939 27.5398 14.6452 27.5398 14.713C27.5398 14.7937 27.5873 14.8485 27.6515 14.8722C27.7054 14.891 27.7633 14.8965 27.8503 14.8965L28.1252 14.9039C28.4024 14.9106 28.5927 14.9586 28.7084 15.0757ZM24.1001 14.9438C24.0318 14.9843 23.9473 14.9878 23.8479 14.9878H23.2275V14.5078H23.8564C23.9473 14.5078 24.0383 14.5097 24.1001 14.5464C24.1663 14.581 24.2059 14.6472 24.2059 14.7386C24.2059 14.8301 24.1663 14.9037 24.1001 14.9438ZM24.4085 15.2097C24.5222 15.2517 24.6151 15.3269 24.6587 15.3891C24.7308 15.4935 24.7413 15.5908 24.7433 15.7792V16.2029H24.2306V15.9355C24.2306 15.8069 24.243 15.6166 24.148 15.5172C24.0734 15.4406 23.9597 15.4223 23.7734 15.4223H23.2276V16.2029H22.7144V14.0658H23.8935C24.152 14.0658 24.3404 14.0772 24.508 14.1666C24.6691 14.264 24.7705 14.3974 24.7705 14.6412C24.7705 14.9823 24.543 15.1564 24.4085 15.2097ZM25.0537 14.0658H26.7582V14.5077H25.5623V14.8963H26.729V15.3323H25.5623V15.7575L26.7582 15.7594V16.2029H25.0537V14.0658ZM21.608 15.052H20.9481V14.5078H21.614C21.7983 14.5078 21.9263 14.5829 21.9263 14.7698C21.9263 14.9546 21.8043 15.052 21.608 15.052ZM20.4394 16.0085L19.6553 15.138L20.4394 14.2951V16.0085ZM18.4145 15.7575H17.1589V15.3323H18.2801V14.8963H17.1589V14.5077H18.4392L18.9978 15.1305L18.4145 15.7575ZM22.4746 14.7698C22.4746 15.3635 22.0317 15.4861 21.5853 15.4861H20.9481V16.2029H19.9554L19.3266 15.4954L18.673 16.2029H16.6501V14.0658H18.7042L19.3325 14.7663L19.9821 14.0658H21.614C22.0193 14.0658 22.4746 14.178 22.4746 14.7698Z" fill="white"/>
</g>
<defs>
<radialGradient id="paint0_radial_122_1619" cx="0" cy="0" r="1" gradientUnits="userSpaceOnUse" gradientTransform="translate(15.7822 6.89598) scale(17.0507)">
<stop stop-color="#9DD5F6"/>
<stop offset="0.0711" stop-color="#98D3F5"/>
<stop offset="0.1575" stop-color="#89CEF3"/>
<stop offset="0.2516" stop-color="#70C6EF"/>
<stop offset="0.3514" stop-color="#4EBBEA"/>
<stop offset="0.4546" stop-color="#23ADE3"/>
<stop offset="0.5" stop-color="#0DA6E0"/>
<stop offset="1" stop-color="#2E77BC"/>
</radialGradient>
<clipPath id="clip0_122_1619">
<rect width="19.3333" height="19.3333" fill="white" transform="translate(12.0835 3.22266)"/>
</clipPath>
</defs>
</svg>
