<svg width="44" height="26" viewBox="0 0 44 26" fill="none" xmlns="http://www.w3.org/2000/svg">
<rect width="43.5" height="25.7778" rx="4.02778" fill="#FFFEFD"/>
<g clip-path="url(#clip0_122_1609)">
<path d="M32.7843 4.83756L26.5876 4.83594H26.5859C26.581 4.83594 26.5764 4.83679 26.5717 4.83679C25.7205 4.86291 24.6601 5.54724 24.467 6.39101L21.5366 19.3866C21.3434 20.2383 21.8687 20.9313 22.7138 20.944H29.2238C30.0559 20.9028 30.8648 20.2263 31.0545 19.3921L33.9852 6.39638C34.1814 5.53615 33.6435 4.83756 32.7843 4.83756Z" fill="#01798A"/>
<path d="M21.5367 19.3862L24.4672 6.39059C24.6603 5.54682 25.7206 4.86249 26.5719 4.83637L24.108 4.83484L19.669 4.83398C18.8153 4.85148 17.7412 5.54059 17.5482 6.39068L14.6168 19.3862C14.423 20.2379 14.9491 20.9308 15.7937 20.9436H22.714C21.8688 20.9308 21.3436 20.2379 21.5367 19.3862Z" fill="#024381"/>
<path d="M14.6166 19.3858L17.5479 6.39017C17.741 5.54009 18.8151 4.85098 19.6687 4.83348L13.9821 4.83203C13.1236 4.83203 12.023 5.52908 11.8268 6.39017L8.89546 19.3858C8.87766 19.4651 8.86769 19.5428 8.86182 19.6188V19.8598C8.91922 20.4806 9.39229 20.9327 10.0723 20.9431H15.7934C14.9489 20.9304 14.4228 20.2375 14.6166 19.3858Z" fill="#DD0228"/>
<path d="M19.7889 14.3043H19.8965C19.9954 14.3043 20.0619 14.271 20.0932 14.2052L20.3729 13.7858H21.1217L20.9656 14.0616H21.8634L21.7495 14.4844H20.6811C20.558 14.6699 20.4065 14.757 20.2244 14.7467H19.6679L19.7889 14.3043ZM19.6659 14.9101H21.6332L21.5078 15.3693H20.7166L20.5959 15.8124H21.3657L21.2404 16.2716H20.4705L20.2917 16.9265C20.2474 17.036 20.3057 17.0851 20.4654 17.074H21.0928L20.9766 17.5008H19.772C19.5436 17.5008 19.4653 17.3699 19.5369 17.1074L19.7656 16.2717H19.2735L19.3985 15.8125H19.8907L20.0113 15.3693H19.5409L19.6659 14.9101ZM22.8058 13.7825L22.7749 14.0514C22.7749 14.0514 23.146 13.7722 23.4829 13.7722H24.7283L24.252 15.5C24.2125 15.6975 24.0431 15.7957 23.7441 15.7957H22.3325L22.0019 17.009C21.9827 17.074 22.0097 17.1073 22.0809 17.1073H22.3587L22.2566 17.484H21.5505C21.2796 17.484 21.1668 17.4023 21.2115 17.2382L22.1458 13.7825H22.8058ZM23.8605 14.271H22.7489L22.6158 14.7372C22.6158 14.7372 22.801 14.6033 23.1104 14.5985C23.4189 14.5937 23.771 14.5985 23.771 14.5985L23.8605 14.271ZM23.4577 15.3525C23.5398 15.3637 23.5859 15.3312 23.5914 15.2542L23.6594 15.0085H22.5462L22.4528 15.3525H23.4577ZM22.7069 15.9108H23.3486L23.3366 16.1891H23.5074C23.5937 16.1891 23.6366 16.1614 23.6366 16.1067L23.6872 15.9267H24.2205L24.1493 16.1891C24.089 16.408 23.9294 16.5222 23.6698 16.5333H23.328L23.3263 17.009C23.3201 17.0852 23.3888 17.124 23.5304 17.124H23.8516L23.748 17.5008H22.9773C22.7613 17.511 22.6553 17.4079 22.6576 17.1891L22.7069 15.9108ZM14.931 11.4806C14.8439 11.9081 14.6422 12.2363 14.3292 12.4694C14.019 12.6986 13.6191 12.8135 13.1294 12.8135C12.6685 12.8135 12.3306 12.6962 12.115 12.4607C11.9655 12.2934 11.8911 12.0809 11.8911 11.824C11.8911 11.7177 11.9038 11.6035 11.9291 11.4807L12.4509 8.95924H13.2389L12.7243 11.452C12.7096 11.5147 12.7025 11.5788 12.703 11.6431C12.7022 11.7708 12.7339 11.8755 12.7979 11.9571C12.8912 12.0785 13.0428 12.1387 13.2537 12.1387C13.4962 12.1387 13.6959 12.0793 13.851 11.9595C14.0061 11.8405 14.1074 11.6717 14.1528 11.452L14.6691 8.95898H15.4532L14.931 11.4806ZM18.2405 10.4886H18.8577L18.3742 12.739H17.7582L18.2405 10.4886ZM18.4347 9.66875H19.0574L18.9411 10.215H18.3185L18.4347 9.66875ZM19.404 12.5677C19.2425 12.4131 19.161 12.2046 19.1602 11.9397C19.1602 11.8945 19.163 11.843 19.169 11.7867C19.175 11.7296 19.1825 11.6741 19.1931 11.6226C19.2663 11.257 19.4222 10.9668 19.6623 10.7527C19.902 10.5378 20.1912 10.43 20.5299 10.43C20.8072 10.43 21.0271 10.5077 21.1882 10.6631C21.3491 10.8194 21.4298 11.0302 21.4298 11.2982C21.4298 11.3442 21.4263 11.3973 21.4203 11.4544C21.4134 11.5107 21.4048 11.5668 21.3946 11.6226C21.3231 11.9826 21.1677 12.2696 20.9275 12.4797C20.6874 12.6914 20.3989 12.7968 20.0627 12.7968C19.7842 12.7969 19.565 12.7208 19.404 12.5677ZM20.5801 12.1221C20.689 12.004 20.7668 11.8248 20.8143 11.5861C20.8215 11.5488 20.8278 11.51 20.8317 11.4712C20.8356 11.4331 20.8372 11.3974 20.8372 11.3649C20.8372 11.2261 20.802 11.1183 20.7312 11.0422C20.6609 10.9653 20.5608 10.9272 20.4314 10.9272C20.2605 10.9272 20.1212 10.9874 20.0121 11.108C19.9021 11.2286 19.8241 11.4109 19.775 11.6536C19.7683 11.6909 19.7628 11.7282 19.7576 11.7646C19.7537 11.8019 19.7525 11.8367 19.7533 11.8685C19.7533 12.0065 19.7886 12.1127 19.8593 12.188C19.9298 12.2634 20.0294 12.3006 20.1604 12.3006C20.3321 12.3005 20.4713 12.241 20.5801 12.1221Z" fill="white"/>
<path d="M26.5859 4.83671L24.1079 4.83594L26.5718 4.83756C26.5764 4.83756 26.5811 4.83671 26.5859 4.83671Z" fill="#E02F41"/>
<path d="M24.108 4.83442L19.703 4.83203C19.6919 4.83203 19.6804 4.8328 19.6689 4.83357L24.108 4.83442Z" fill="#2E4F7D"/>
<path d="M25.4339 14.3229L25.5827 13.798H26.3351L26.3027 13.9907C26.3027 13.9907 26.6871 13.798 26.9641 13.798H27.8944L27.7466 14.3229H27.6002L26.8984 16.7985H27.0448L26.9056 17.2901H26.7592L26.6983 17.5034H25.9695L26.0303 17.2901H24.5928L24.7329 16.7985H24.8769L25.5794 14.3229H25.4339ZM26.2457 14.3229L26.0543 14.9929C26.0543 14.9929 26.382 14.8668 26.6644 14.8311C26.7267 14.5973 26.8082 14.3229 26.8082 14.3229H26.2457ZM25.9656 15.307L25.7734 16.0088C25.7734 16.0088 26.1365 15.8296 26.3857 15.8145C26.4577 15.5433 26.5297 15.307 26.5297 15.307L25.9656 15.307ZM26.1064 16.7985L26.2503 16.2894H25.6888L25.5439 16.7985H26.1064ZM27.9261 13.7655H28.6336L28.6636 14.0271C28.6589 14.0936 28.6985 14.1255 28.7823 14.1255H28.9074L28.7809 14.5686H28.261C28.0626 14.5788 27.9604 14.5028 27.9509 14.3387L27.9261 13.7655ZM27.7188 14.7163H30.0101L29.8756 15.1921H29.1462L29.021 15.6344H29.7499L29.6145 16.1094H28.8029L28.6193 16.3878H29.0166L29.1083 16.9452C29.1192 17.0007 29.1683 17.0277 29.2523 17.0277H29.3756L29.246 17.4867H28.8092C28.5828 17.4979 28.4659 17.4218 28.4563 17.2576L28.351 16.7485L27.9895 17.2901C27.904 17.4432 27.7726 17.5145 27.5954 17.5034H26.9285L27.0582 17.0442H27.2663C27.3518 17.0442 27.4229 17.0063 27.4869 16.9293L28.0528 16.1094H27.3234L27.4586 15.6344H28.2498L28.3756 15.1921H27.5837L27.7188 14.7163ZM15.6567 10.4874H16.2133L16.1496 10.8125L16.2295 10.7198C16.4099 10.5263 16.629 10.4303 16.8878 10.4303C17.1219 10.4303 17.2908 10.4985 17.3969 10.6357C17.5013 10.7728 17.5299 10.9624 17.4804 11.2058L17.1737 12.7394H16.6017L16.8786 11.3494C16.9071 11.2058 16.8992 11.0988 16.8552 11.0297C16.8118 10.9608 16.7287 10.9267 16.6088 10.9267C16.4616 10.9267 16.3378 10.9726 16.2369 11.0639C16.1356 11.1559 16.0688 11.2836 16.0359 11.4461L15.7807 12.7394H15.2075L15.6567 10.4874ZM22.0396 10.4874H22.5967L22.5334 10.8125L22.6124 10.7198C22.793 10.5263 23.0129 10.4303 23.2709 10.4303C23.5051 10.4303 23.6742 10.4985 23.7795 10.6357C23.8833 10.7728 23.9132 10.9624 23.8626 11.2058L23.5572 12.7394H22.9844L23.2614 11.3494C23.2899 11.2058 23.2818 11.0988 23.2383 11.0297C23.1932 10.9608 23.1117 10.9267 22.9923 10.9267C22.8451 10.9267 22.7217 10.9726 22.6196 11.0639C22.5184 11.1559 22.4511 11.2836 22.4195 11.4461L22.1631 12.7394H21.5906L22.0396 10.4874ZM24.7931 9.0918H26.4103C26.7212 9.0918 26.9618 9.16238 27.1271 9.30107C27.2916 9.44156 27.3739 9.6429 27.3739 9.90535V9.91329C27.3739 9.96322 27.3707 10.0195 27.3659 10.0806C27.3577 10.1425 27.3472 10.2042 27.3343 10.2654C27.2631 10.6126 27.0978 10.8918 26.8423 11.1035C26.5858 11.3144 26.2821 11.4206 25.9324 11.4206H25.0651L24.797 12.7393H24.0461L24.7931 9.0918ZM25.1973 10.7864H25.9165C26.1039 10.7864 26.2527 10.7427 26.3613 10.6563C26.4689 10.5691 26.5401 10.4359 26.5795 10.2551C26.5858 10.2217 26.5898 10.1916 26.5945 10.1639C26.5969 10.1378 26.6001 10.1115 26.6001 10.0862C26.6001 9.9569 26.5543 9.86336 26.4624 9.80464C26.3707 9.74506 26.2266 9.71664 26.0273 9.71664H25.4165L25.1973 10.7864ZM30.7349 13.1748C30.4975 13.6806 30.2713 13.9755 30.1385 14.1127C30.0054 14.2484 29.7419 14.5639 29.1074 14.5401L29.1622 14.1541C29.6961 13.9891 29.9848 13.246 30.1495 12.917L29.9532 10.4938L30.3663 10.4882H30.7128L30.7501 12.0083L31.3995 10.4882H32.0571L30.7349 13.1748ZM28.8963 10.6714L28.6351 10.8514C28.3622 10.6373 28.113 10.5048 27.632 10.7285C26.9768 11.0329 26.4293 13.3682 28.2333 12.5991L28.3361 12.7212L29.0458 12.7395L29.5119 10.6175L28.8963 10.6714ZM28.4926 11.8314C28.3787 12.1685 28.124 12.3912 27.9246 12.3278C27.7252 12.2659 27.654 11.9409 27.7696 11.603C27.8835 11.2652 28.1399 11.0432 28.3376 11.1066C28.537 11.1685 28.609 11.4936 28.4926 11.8314Z" fill="white"/>
</g>
<defs>
<clipPath id="clip0_122_1609">
<rect width="25.1653" height="16.1111" fill="white" transform="translate(8.86133 4.83203)"/>
</clipPath>
</defs>
</svg>
