<svg width="44" height="26" viewBox="0 0 44 26" fill="none" xmlns="http://www.w3.org/2000/svg">
<rect width="43.5" height="25.7778" rx="4.02778" fill="#FFFEFD"/>
<g clip-path="url(#clip0_122_1577)">
<path d="M27.2354 10.2938C28.0105 10.2938 28.6094 10.5061 29.0674 10.9305C29.5254 11.355 29.7368 11.9209 29.7368 12.6283V16.0238H28.7503V15.2457H28.7151C28.2923 15.8823 27.6934 16.2007 26.9887 16.2007C26.3898 16.2007 25.8613 16.0238 25.4385 15.6701C25.051 15.3164 24.8043 14.8212 24.8043 14.2907C24.8043 13.7248 25.0157 13.2649 25.4385 12.9112C25.8613 12.5575 26.4602 12.4161 27.1649 12.4161C27.7991 12.4161 28.2923 12.5222 28.6799 12.7698V12.5222C28.6799 12.192 28.5571 11.8619 28.3116 11.6468L28.2571 11.6025C27.9752 11.355 27.6229 11.2135 27.2354 11.2135C26.6364 11.2135 26.1784 11.4611 25.8613 11.9562L24.9453 11.3903C25.509 10.6475 26.2489 10.2938 27.2354 10.2938ZM22.2676 7.88867C22.8999 7.88867 23.5006 8.10952 23.981 8.52141L24.0645 8.59608C24.5577 9.02052 24.8043 9.65718 24.8043 10.3292C24.8043 11.0013 24.5577 11.6025 24.0645 12.0624C23.5712 12.5222 22.9723 12.7698 22.2676 12.7698L20.5765 12.7344V16.0238H19.5195V7.88867H22.2676ZM27.3763 13.2649C26.9535 13.2649 26.6012 13.3711 26.3193 13.5833C26.0375 13.7601 25.8965 14.0077 25.8965 14.3261C25.8965 14.609 26.0375 14.8566 26.2489 14.9981C26.4955 15.1749 26.7773 15.281 27.0592 15.281C27.4538 15.281 27.8484 15.127 28.1571 14.8476L28.2219 14.7859C28.5742 14.4675 28.7503 14.0785 28.7503 13.654C28.4332 13.4064 27.9752 13.2649 27.3763 13.2649ZM22.3381 8.87904H20.5765V11.7087H22.3381C22.7257 11.7087 23.1132 11.5672 23.3598 11.2842C23.9235 10.7537 23.9235 9.8694 23.3951 9.33885L23.3598 9.30348C23.078 9.02052 22.7257 8.84367 22.3381 8.87904ZM35.4444 10.4707L31.9565 18.4997H30.8995L32.2031 15.7055L29.913 10.5061H31.0404L32.6963 14.5029H32.7316L34.3522 10.5061H35.4444V10.4707Z" fill="#5F6368"/>
<path d="M16.3837 12.0273C16.3837 11.7089 16.3484 11.3906 16.3132 11.0723H11.9092V12.8761H14.4107C14.305 13.4421 13.9879 13.9726 13.4946 14.291V15.4582H15.0096C15.8904 14.6447 16.3837 13.4421 16.3837 12.0273Z" fill="#4285F4"/>
<path d="M11.9093 16.5893C13.1777 16.5893 14.2347 16.1649 15.0098 15.4575L13.4948 14.2902C13.072 14.5732 12.5435 14.75 11.9093 14.75C10.7114 14.75 9.65448 13.9365 9.30216 12.8047H7.75195V14.0073C8.56229 15.5989 10.1477 16.5893 11.9093 16.5893Z" fill="#34A853"/>
<path d="M9.30227 12.8053C9.09088 12.2394 9.09088 11.6027 9.30227 11.0014V9.79883H7.75206C7.08265 11.1075 7.08265 12.6638 7.75206 14.0079L9.30227 12.8053Z" fill="#FBBC04"/>
<path d="M11.9093 9.09115C12.5787 9.09115 13.2128 9.33875 13.7061 9.79856L15.0449 8.45449C14.1993 7.67635 13.0719 7.21653 11.9445 7.2519C10.1829 7.2519 8.56221 8.24227 7.78711 9.83393L9.33732 11.0365C9.65441 9.90467 10.7114 9.09115 11.9093 9.09115Z" fill="#EA4335"/>
</g>
<defs>
<clipPath id="clip0_122_1577">
<rect width="28.1945" height="11.2778" fill="white" transform="translate(7.25 7.25)"/>
</clipPath>
</defs>
</svg>
