<svg width="44" height="26" viewBox="0 0 44 26" fill="none" xmlns="http://www.w3.org/2000/svg">
<rect width="43.5" height="25.7778" rx="4.02778" fill="#FFFEFD"/>
<path d="M25.4011 8.75586C23.5886 8.75586 21.9687 9.69476 21.9687 11.4295C21.9687 13.4189 24.8416 13.5562 24.8416 14.5557C24.8416 14.9765 24.359 15.3532 23.5348 15.3532C22.3652 15.3532 21.491 14.8268 21.491 14.8268L21.1169 16.5774C21.1169 16.5774 22.124 17.0219 23.461 17.0219C25.4427 17.0219 27.0021 16.0369 27.0021 14.2725C27.0021 12.1704 24.1174 12.0371 24.1174 11.1095C24.1174 10.7798 24.5135 10.4186 25.3353 10.4186C26.2626 10.4186 27.0191 10.8014 27.0191 10.8014L27.3851 9.11074C27.3851 9.11074 26.562 8.75586 25.4011 8.75586ZM8.81782 8.88346L8.77393 9.13866C8.77393 9.13866 9.53648 9.27813 10.2233 9.55638C11.1076 9.87538 11.1706 10.0611 11.3195 10.638L12.9424 16.8904H15.118L18.4696 8.88346H16.299L14.1454 14.3274L13.2666 9.71286C13.186 9.18475 12.7778 8.88346 12.2781 8.88346H8.81782ZM19.3424 8.88346L17.6396 16.8904H19.7094L21.4062 8.88346H19.3424ZM30.8863 8.88346C30.3872 8.88346 30.1228 9.15053 29.9287 9.61716L26.8964 16.8904H29.0669L29.4869 15.6782H32.1312L32.3866 16.8904H34.3018L32.631 8.88346H30.8863ZM31.1686 11.0467L31.812 14.0513H30.0884L31.1686 11.0467Z" fill="#1434CB"/>
</svg>
