<svg width="17" height="17" viewBox="0 0 17 17" fill="none" xmlns="http://www.w3.org/2000/svg">
<path d="M11.3216 11.6816H13.9136C14.936 11.6648 16.5 12.2032 16.5 14.1456C16.5 16.1616 14.5704 16.5 13.9128 16.5H5.2568C3.2504 16.5 0.5 16.0928 0.5 12.636V5.3016H16.5V8.9152M12.9016 10.0808L11.54 11.2168C11.4736 11.2749 11.4199 11.3461 11.3823 11.426C11.3447 11.5058 11.324 11.5926 11.3216 11.6808C11.3193 11.7749 11.3379 11.8684 11.3759 11.9546C11.4139 12.0407 11.4705 12.1174 11.5416 12.1792L12.9016 13.2856M0.5048 5.2928L1.2416 3.4528C1.84 2.0216 2.1392 1.3064 2.7456 0.904C3.352 0.5016 4.1296 0.5 5.684 0.5H11.3C12.8552 0.5 13.6328 0.5 14.2392 0.9032C14.8456 1.3056 15.144 2.0208 15.7432 3.4512L16.5 5.296M8.4704 5.3008V0.5008M6.8704 8.5008H10.0704" stroke="#676767" stroke-linecap="round" stroke-linejoin="round"/>
</svg>
