<svg width="15" height="17" viewBox="0 0 15 17" fill="none" xmlns="http://www.w3.org/2000/svg">
<path d="M1.27778 3.7V6.8024C1.27778 9.1104 1.27778 10.2656 1.98711 10.9824C2.69489 11.7 3.83589 11.7 6.11711 11.7H7.32733C9.60856 11.7 10.7496 11.7 11.4581 10.9824C12.1667 10.2656 12.1667 9.1112 12.1667 6.8024V3.7M1.27778 3.7H12.1667M1.27778 3.7L1.80122 2.4696C2.20722 1.5144 2.41022 1.0376 2.82167 0.7688C3.23389 0.5 3.76122 0.5 4.81667 0.5H8.62778C9.68322 0.5 10.2113 0.5 10.6228 0.7688C11.0342 1.0376 11.2372 1.5144 11.6432 2.4696L12.1667 3.7M5.55556 6.1H7.88889M0.5 11.7H12.1667C12.7855 11.7 13.379 11.9529 13.8166 12.4029C14.2542 12.853 14.5 13.4635 14.5 14.1C14.5 14.7365 14.2542 15.347 13.8166 15.7971C13.379 16.2471 12.7855 16.5 12.1667 16.5H0.5M11.3889 14.1H11.3959M6.72222 14.1H6.72922M2.05556 14.1H2.06256" stroke="#676767" stroke-linecap="round" stroke-linejoin="round"/>
</svg>
