<svg width="67" height="16" viewBox="0 0 67 16" fill="none" xmlns="http://www.w3.org/2000/svg">
<g clip-path="url(#clip0_129_2764)">
<path fill-rule="evenodd" clip-rule="evenodd" d="M44.6279 0C43.2774 0 42.1826 1.0888 42.1826 2.4319V13.4922C42.1826 14.8353 43.2774 15.9241 44.6279 15.9241H64.5542C65.9047 15.9241 66.9995 14.8353 66.9995 13.4922V2.4319C66.9995 1.0888 65.9047 0 64.5542 0H44.6279ZM48.0692 11.1124V8.30889H49.8425C51.4627 8.30889 52.3242 7.40543 52.3242 6.03629C52.3242 4.66715 51.4627 3.84752 49.8425 3.84752H46.9267V11.1124H48.0692ZM48.0692 4.92794H49.5803C50.6291 4.92794 51.1442 5.35638 51.1442 6.07355C51.1442 6.79072 50.6479 7.21916 49.6271 7.21916H48.0692V4.92794ZM54.3386 11.2614C55.2095 11.2614 55.7808 10.8795 56.043 10.2275C56.1178 10.954 56.558 11.3266 57.5133 11.0751L57.5226 10.302C57.1386 10.3393 57.0638 10.1996 57.0638 9.79912V7.89907C57.0638 6.7814 56.3239 6.12012 54.9566 6.12012C53.608 6.12012 52.8307 6.79072 52.8307 7.92701H53.8797C53.8797 7.38681 54.2636 7.06082 54.9378 7.06082C55.6496 7.06082 55.9774 7.36819 55.968 7.89907V8.14124L54.76 8.27163C53.402 8.42065 52.6528 8.93292 52.6528 9.82702C52.6528 10.5628 53.1773 11.2614 54.3386 11.2614ZM54.5726 10.4231C53.9827 10.4231 53.7485 10.1064 53.7485 9.78976C53.7485 9.36136 54.2355 9.16577 55.1907 9.054L55.9399 8.97018C55.8931 9.78976 55.3406 10.4231 54.5726 10.4231ZM60.9916 11.4756C60.5139 12.6305 59.746 12.9751 58.5473 12.9751H58.0322V12.0252H58.5848C59.2403 12.0252 59.5588 11.8202 59.9052 11.2335L57.7794 6.26914H58.9594L60.4766 9.89229L61.8251 6.26914H62.9769L60.9916 11.4756Z" fill="#676767"/>
<path d="M5.63043 7.00034C4.06605 6.66285 3.36913 6.53078 3.36913 5.93124C3.36913 5.36735 3.84077 5.08644 4.78403 5.08644C5.61359 5.08644 6.21997 5.44701 6.66633 6.15345C6.70002 6.20795 6.7695 6.22682 6.82635 6.19747L8.58654 5.31284C8.64971 5.2814 8.67287 5.20174 8.63707 5.14095C7.90647 3.88108 6.55685 3.19141 4.77982 3.19141C2.44482 3.19141 0.994141 4.33597 0.994141 6.15554C0.994141 8.08831 2.76065 8.57675 4.32713 8.91425C5.89362 9.25176 6.59264 9.38382 6.59264 9.98332C6.59264 10.5829 6.08311 10.8659 5.06616 10.8659C4.12711 10.8659 3.43019 10.4382 3.00909 9.60812C2.97751 9.54733 2.90382 9.52218 2.84276 9.55362L1.08678 10.4194C1.02572 10.4508 1.00046 10.5242 1.03204 10.5871C1.72895 11.9811 3.15858 12.7651 5.06826 12.7651C7.5001 12.7651 8.96974 11.6394 8.96974 9.76322C8.96974 7.88707 7.19481 7.34204 5.63043 7.00454V7.00034Z" fill="#676767"/>
<path d="M15.0632 3.19054C14.0652 3.19054 13.183 3.54271 12.5493 4.1695C12.5092 4.20724 12.4439 4.17999 12.4439 4.12548V0.123681C12.4439 0.0545033 12.3892 0 12.3197 0H10.1174C10.0479 0 9.99316 0.0545033 9.99316 0.123681V12.5442C9.99316 12.6134 10.0479 12.6678 10.1174 12.6678H12.3197C12.3892 12.6678 12.4439 12.6134 12.4439 12.5442V7.09591C12.4439 6.04358 13.2546 5.23651 14.3473 5.23651C15.4401 5.23651 16.2317 6.02681 16.2317 7.09591V12.5442C16.2317 12.6134 16.2865 12.6678 16.3559 12.6678H18.5583C18.6278 12.6678 18.6826 12.6134 18.6826 12.5442V7.09591C18.6826 4.80677 17.175 3.19263 15.0632 3.19263V3.19054Z" fill="#676767"/>
<path d="M23.1503 2.83398C21.9544 2.83398 20.8343 3.19875 20.03 3.72491C19.9752 3.76054 19.9563 3.83392 19.99 3.89051L20.9606 5.54029C20.9964 5.59898 21.0722 5.61995 21.1311 5.58431C21.7418 5.21746 22.4408 5.0267 23.1546 5.03089C25.0769 5.03089 26.4896 6.38089 26.4896 8.16483C26.4896 9.68464 25.359 10.8103 23.9251 10.8103C22.7566 10.8103 21.946 10.1333 21.946 9.17733C21.946 8.63021 22.1797 8.1816 22.7882 7.86506C22.8513 7.83153 22.8745 7.75396 22.8366 7.69316L21.9207 6.15031C21.8913 6.09999 21.8281 6.07693 21.7712 6.0979C20.5437 6.5507 19.6826 7.64076 19.6826 9.10396C19.6826 11.3176 21.4533 12.9695 23.923 12.9695C26.8076 12.9695 28.8814 10.9802 28.8814 8.1271C28.8814 5.06863 26.4685 2.83398 23.1503 2.83398Z" fill="#676767"/>
<path d="M35.3215 3.17397C34.2076 3.17397 33.2139 3.58275 32.4875 4.30387C32.4475 4.3437 32.3822 4.31435 32.3822 4.25985V3.39199C32.3822 3.32281 32.3275 3.2683 32.2579 3.2683H30.1125C30.043 3.2683 29.9883 3.32281 29.9883 3.39199V15.7936C29.9883 15.8627 30.043 15.9173 30.1125 15.9173H32.3148C32.3843 15.9173 32.439 15.8627 32.439 15.7936V11.7268C32.439 11.6723 32.5044 11.6451 32.5443 11.6807C33.2686 12.3515 34.2266 12.7435 35.3236 12.7435C37.907 12.7435 39.9219 10.6619 39.9219 7.95769C39.9219 5.25348 37.9049 3.17188 35.3236 3.17188L35.3215 3.17397ZM34.9067 10.643C33.4371 10.643 32.3233 9.47959 32.3233 7.94092C32.3233 6.40225 33.4349 5.23881 34.9067 5.23881C36.3784 5.23881 37.4881 6.38338 37.4881 7.94092C37.4881 9.49845 36.3932 10.643 34.9046 10.643H34.9067Z" fill="#676767"/>
</g>
<defs>
<clipPath id="clip0_129_2764">
<rect width="67" height="16" fill="white"/>
</clipPath>
</defs>
</svg>
