<svg width="24" height="24" viewBox="0 0 24 24" fill="none" xmlns="http://www.w3.org/2000/svg">
<path d="M5.6 16.7902L6.0112 16.1038L5.8208 15.9918H5.6V16.7902ZM5.6 7.19658V7.99658H5.8208L6.0128 7.88298L5.6 7.19658ZM13.6 2.39978H14.4C14.4 2.25823 14.3625 2.11921 14.2913 1.99691C14.22 1.8746 14.1176 1.77339 13.9944 1.7036C13.8713 1.63382 13.7318 1.59795 13.5903 1.59967C13.4488 1.60139 13.3102 1.64062 13.1888 1.71338L13.6 2.39978ZM13.6 21.587L13.1888 22.2734C13.3102 22.3461 13.4488 22.3854 13.5903 22.3871C13.7318 22.3888 13.8713 22.3529 13.9944 22.2831C14.1176 22.2134 14.22 22.1122 14.2913 21.9898C14.3625 21.8675 14.4 21.7285 14.4 21.587H13.6ZM22.1648 6.63018L21.6 6.06538L20.4688 7.19658L21.0352 7.76298L22.1648 6.63018ZM21.0352 16.2238L20.4688 16.7902L21.6 17.9214L22.1648 17.3566L21.0352 16.2238ZM5.6 15.9918L2.4 15.9902V17.5902H5.6V15.9918ZM2.4 15.9902C2.18783 15.9902 1.98434 15.9059 1.83431 15.7559C1.68429 15.6058 1.6 15.4024 1.6 15.1902H0C0 16.5182 1.0752 17.5902 2.4 17.5902V15.9902ZM1.6 15.1902V8.79658H0V15.1934L1.6 15.1902ZM1.6 8.79658C1.60042 8.58468 1.6849 8.38001 1.83488 8.23033C1.98486 8.08064 2.1881 7.99658 2.4 7.99658V6.39658C1.76348 6.39658 1.15303 6.64943 0.702944 7.09952C0.252856 7.54961 0 8.16006 0 8.79658H1.6ZM2.4 7.99658H5.6V6.39658H2.4V7.99658ZM6.0128 7.88298L14.0112 3.08618L13.1888 1.71338L5.1888 6.51018L6.0128 7.88298ZM12.8 2.39978V21.587H14.4V2.39978H12.8ZM14.0112 20.9006L6.0112 16.1038L5.1888 17.4766L13.1888 22.2734L14.0112 20.9006ZM21.6 7.19658C21.0352 7.76298 21.0336 7.76298 21.0336 7.76138L21.0304 7.75818L21.0352 7.76298L21.0672 7.79818C21.0992 7.83444 21.1472 7.89418 21.2112 7.97738C21.3344 8.14218 21.5088 8.40138 21.6848 8.75338C22.0368 9.45578 22.4 10.5326 22.4 11.9934H24C24 10.2558 23.5648 8.93578 23.1152 8.03818C22.9396 7.67862 22.7307 7.33632 22.4912 7.01578C22.4002 6.89556 22.3035 6.7797 22.2016 6.66858L22.1792 6.64458L22.1712 6.63658L22.168 6.63338L22.1664 6.63178L21.6 7.19658ZM22.4 11.9934C22.4 13.4542 22.0352 14.531 21.6848 15.2334C21.5151 15.5737 21.3079 15.8941 21.0672 16.1886L21.0352 16.2238L21.0304 16.2286L21.032 16.227L21.0336 16.2254L21.6 16.7902C22.1648 17.3566 22.1664 17.3566 22.1664 17.355L22.1712 17.3502L22.1792 17.3422L22.2016 17.3198L22.2704 17.243C22.328 17.179 22.4011 17.0883 22.4896 16.971C22.6656 16.7374 22.8912 16.395 23.1152 15.9486C23.5632 15.0526 24 13.731 24 11.9934H22.4Z" fill="#E8E8E8"/>
</svg>
