<svg width="269" height="40" viewBox="0 0 269 40" fill="none" xmlns="http://www.w3.org/2000/svg">
<g clip-path="url(#clip0_33_608)">
<path d="M177.151 6.21818C169.501 6.21818 164.133 12.2574 164.133 19.9518C164.133 27.6463 169.546 33.7303 177.285 33.7303C184.935 33.7303 190.303 27.691 190.303 19.9966C190.258 12.3021 184.845 6.21818 177.151 6.21818ZM177.151 39.9484C165.296 39.9484 157.02 31.1356 157.02 19.9966C157.02 8.90228 165.386 0 177.285 0C189.14 0 197.461 8.81281 197.461 19.9518C197.416 31.0461 189.006 39.9484 177.151 39.9484ZM51.5796 6.21818C43.9299 6.21818 38.6064 12.2574 38.6064 19.9518C38.6064 27.6463 44.0193 33.7303 51.669 33.7303C59.3187 33.7303 64.6869 27.691 64.6869 19.9966C64.6869 12.3021 59.274 6.21818 51.5796 6.21818ZM51.5796 39.9484C39.7248 39.9484 31.404 31.1356 31.404 19.9966C31.404 8.90228 39.7695 0 51.669 0C63.5238 0 71.8446 8.81281 71.8446 19.9518C71.8446 31.0461 63.4791 39.9484 51.5796 39.9484ZM91.528 39.2774L81.06 11.5864V39.2774H74.3497V0.671026H84.0125L93.4516 25.499L102.846 0.671026H112.464V39.2774H105.664V11.5417L95.1515 39.2774H91.528ZM247.877 6.84447H240.272V33.104H247.877C256.064 33.104 261.298 27.7805 261.298 20.0413C261.298 12.3916 256.243 6.84447 247.877 6.84447ZM247.877 39.2774H233.472V0.626291H247.967C260.403 0.626291 268.411 8.72334 268.411 19.9071C268.411 30.8225 260.537 39.2774 247.877 39.2774ZM215.668 6.84447H206.676V18.2072H215.713C220.947 18.2072 223.899 15.9704 223.899 12.3469C223.944 8.09705 220.723 6.84447 215.668 6.84447ZM224.749 39.2774L215.176 24.3359H206.676V39.2327H199.921V0.581556H217.01C226.002 0.581556 230.878 4.83139 230.878 12.0337C230.878 18.6098 227.165 21.9649 222.423 23.0833L232.712 39.1879L224.749 39.2774ZM156.394 6.84447H134.429V18.2072H154.694V24.3806H134.429V39.2774H127.629V0.626291H156.394V6.84447ZM19.9966 39.2774H13.1521V6.84447H0V0.626291H33.0145V6.84447H19.9966V39.2774Z" fill="#E8E8E8"/>
</g>
<defs>
<clipPath id="clip0_33_608">
<rect width="268.5" height="39.9932" fill="white"/>
</clipPath>
</defs>
</svg>
