<svg width="142" height="40" viewBox="0 0 142 40" fill="none" xmlns="http://www.w3.org/2000/svg">
<g clip-path="url(#clip0_33_601)">
<path d="M0.608956 0.890504H19.0435C34.8937 0.890504 41.0961 10.1844 41.0961 20.0233C41.0961 30.0342 33.1423 38.9551 18.0099 38.9551H0.637356C0.321406 38.9551 0.206623 38.7542 0.206623 38.5821C0.206623 38.3812 0.407789 38.2092 0.694748 38.2092H3.93945C4.94469 38.2092 5.60499 37.6069 5.60499 36.488V3.41494C5.60499 2.58332 5.20325 1.66539 3.88206 1.66539H0.579964C0.321998 1.66539 0.178223 1.49339 0.178223 1.29243C0.178223 1.12043 0.235614 0.890504 0.608956 0.890504ZM12.1234 37.1772C12.1234 38.0088 12.4967 38.2671 13.0422 38.2671H17.9235C29.9544 38.2671 34.3192 29.0595 34.3192 19.8229C34.3192 10.5863 29.6959 1.63643 19.5316 1.63643H12.8985C12.2092 1.63643 12.1518 2.21035 12.1518 2.46806L12.1234 37.1772ZM42.9332 0.890504C42.6463 0.890504 42.3877 1.00517 42.3877 1.2345C42.3877 1.46384 42.5315 1.60747 42.7895 1.60747H46.0342C46.7808 1.60747 47.4985 2.12406 47.4985 3.55799V36.517C47.4985 37.2056 46.9814 38.2381 46.0626 38.2381H42.8475C42.4741 38.2381 42.4457 38.5248 42.4457 38.6395C42.4457 38.7541 42.4167 38.9551 42.8475 38.9551H58.468C58.6976 38.9551 59.0136 38.9261 59.0136 38.6968C59.0136 38.4675 58.9562 38.2381 58.5544 38.2381H55.5387C55.108 38.2381 53.9305 37.9798 53.9305 36.6606V3.21398C53.9305 2.26709 54.5335 1.63643 55.6245 1.63643H58.5822C58.8408 1.63643 58.984 1.4928 58.984 1.29243C58.984 1.09147 58.8402 0.919466 58.4958 0.919466C58.4929 0.891095 42.8782 0.973844 42.9332 0.890504ZM67.3401 19.9376C67.3401 9.41012 72.0492 0.891096 80.8928 0.891096C89.5643 0.891096 94.4455 9.41071 94.4455 19.9376C94.4455 30.4645 89.9956 38.9841 80.8934 38.9841C72.0782 39.013 67.3401 30.4645 67.3401 19.9376ZM80.8934 39.7873C93.4699 39.7873 101.395 30.8953 101.395 19.966C101.395 9.03657 93.5562 0.116211 80.8934 0.116211C68.2595 0.116211 60.3916 9.00819 60.3916 19.9376C60.3916 30.867 68.5749 39.7873 80.8934 39.7873ZM141.594 38.7258C136.656 39.2424 133.927 31.153 131.429 27.3093C129.563 24.4693 125.6 21.5725 121.695 20.9985C128.127 20.6256 135.334 18.5604 135.334 11.2743C135.334 5.36546 131.688 0.890504 118.307 0.890504H102.887C102.686 0.890504 102.486 1.00517 102.486 1.2345C102.486 1.46384 102.687 1.60747 102.887 1.60747H106.419C107.166 1.60747 107.883 2.12406 107.883 3.55799V36.517C107.883 37.2056 107.366 38.2381 106.447 38.2381H102.974C102.687 38.2381 102.573 38.4675 102.573 38.5821C102.573 38.6968 102.687 38.9551 102.974 38.9551H119.341C119.571 38.9551 119.772 38.8404 119.772 38.6111C119.772 38.3818 119.628 38.2381 119.313 38.2381H116.011C115.58 38.2381 114.402 37.9515 114.402 36.6606V21.0848H116.096C124.194 21.0848 124.797 29.8622 128.817 34.8821C132.262 39.185 136.77 39.73 139.326 39.73C140.417 39.73 141.164 39.701 141.853 39.529C142.284 39.3854 142.37 38.6401 141.594 38.7258ZM116.039 1.60806H118.422C122.499 1.60806 129.104 3.21457 129.104 10.902C129.104 17.9587 123.246 20.3395 117.819 20.3395H114.344V3.21398C114.345 2.23872 114.948 1.60806 116.039 1.60806Z" fill="#E8E8E8"/>
</g>
<defs>
<clipPath id="clip0_33_601">
<rect width="142" height="40" fill="white"/>
</clipPath>
</defs>
</svg>
