<svg width="91" height="40" viewBox="0 0 91 40" fill="none" xmlns="http://www.w3.org/2000/svg">
<path d="M27.083 18.8711C25.9405 18.1053 24.6915 17.512 23.3761 17.11C22.1313 16.7421 21.1584 16.4881 20.4573 16.3479C18.1081 15.7524 16.2063 15.2618 14.7518 14.8761C13.5815 14.5891 12.4379 14.2022 11.3338 13.7197C10.6737 13.4639 10.0994 13.0265 9.67757 12.4581C9.37457 11.9128 9.22894 11.2941 9.2569 10.6709C9.2287 9.96754 9.41185 9.27184 9.78274 8.67346C10.1336 8.14709 10.5903 7.69951 11.1236 7.3592C11.6781 7.00458 12.2932 6.75512 12.9381 6.62329C13.595 6.4843 14.2647 6.41383 14.9362 6.41304C15.8805 6.40615 16.823 6.4942 17.7496 6.67586C18.56 6.8323 19.3351 7.13511 20.0369 7.56946C20.7119 8.00002 21.2643 8.59754 21.6404 9.30416C22.0775 10.1699 22.3198 11.1208 22.3504 12.09H30.3432C30.4002 10.1675 29.9753 8.26126 29.1073 6.54473C28.3061 5.04643 27.162 3.75858 25.7684 2.78615C24.3121 1.78167 22.6801 1.05951 20.9571 0.657207C19.1057 0.214011 17.208 -0.00657022 15.3043 0.000148984C13.5988 0.00364368 11.9013 0.233455 10.2563 0.683559C8.6358 1.11006 7.10441 1.82208 5.73406 2.78615C4.41179 3.72086 3.30835 4.93145 2.50001 6.33426C1.6471 7.86723 1.22037 9.60054 1.26414 11.3541C1.21912 12.8752 1.55348 14.3837 2.23709 15.7434C2.86025 16.9223 3.73013 17.9531 4.78755 18.7659C5.87721 19.5933 7.0818 20.2573 8.36325 20.737C9.70354 21.248 11.0733 21.6781 12.4652 22.0248C13.8318 22.4108 15.1814 22.7613 16.5138 23.0761C17.7312 23.3559 18.9263 23.7249 20.0896 24.1799C21.0344 24.5339 21.9007 25.0697 22.6393 25.7568C22.9641 26.0787 23.2183 26.4645 23.3858 26.8899C23.5533 27.3153 23.6304 27.7709 23.6122 28.2276C23.6457 29.0691 23.3855 29.896 22.8761 30.5667C22.3814 31.183 21.7517 31.6776 21.0356 32.0122C20.2872 32.3667 19.4894 32.6059 18.6694 32.7216C17.8861 32.8402 17.0953 32.9017 16.3031 32.9058C15.2389 32.9087 14.1787 32.7762 13.148 32.5115C12.195 32.2784 11.2943 31.8683 10.4928 31.3025C9.72756 30.7469 9.10566 30.0171 8.67862 29.1735C8.19566 28.1755 7.96123 27.0755 7.99531 25.9673H0.00226955C-0.085328 28.0388 0.3486 30.0992 1.26428 31.9597C2.10613 33.6024 3.32186 35.0248 4.8137 36.1125C6.36505 37.2279 8.11378 38.0393 9.96734 38.5039C11.9332 39.0146 13.9566 39.2709 15.9878 39.2664C18.2719 39.3035 20.549 39.0023 22.7448 38.3723C24.5212 37.8644 26.1819 37.0164 27.6348 35.8755C28.911 34.8561 29.929 33.5505 30.6064 32.0646C31.279 30.5604 31.6198 28.929 31.6054 27.2814C31.6811 25.4608 31.2142 23.6587 30.264 22.1037C29.4352 20.8206 28.3527 19.7206 27.083 18.8711Z" fill="#E8E8E8"/>
<path d="M46.7484 0.893555L32.5508 38.4247H40.859L43.8037 30.0671H57.8438L60.6833 38.4247H69.2541L55.2146 0.893555H46.7484ZM45.9597 23.9169L50.8497 10.1449H50.9549L55.6874 23.9169H45.9597Z" fill="#E8E8E8"/>
<path d="M80.7706 0.893555H72.5146V38.4246H80.7706V0.893555Z" fill="#E8E8E8"/>
<path d="M141.887 0.887695H111.125V0.893302H110.603V26.0718H110.498L94.8281 0.893302H86.625V38.4245H94.3548V13.2986H94.46L110.077 38.4245H118.332V7.82623L129.691 7.83184V38.4245H137.946V7.83184H149.199V0.893302H141.887V0.887695Z" fill="#E8E8E8"/>
</svg>
