<svg width="254" height="40" viewBox="0 0 254 40" fill="none" xmlns="http://www.w3.org/2000/svg">
<g clip-path="url(#clip0_33_598)">
<path fill-rule="evenodd" clip-rule="evenodd" d="M244.431 1.35973H253.353C252.365 2.12655 251.772 3.0657 251.772 4.35112V35.073C251.772 36.3568 252.39 37.2723 253.353 38.0375H244.431C245.394 37.2723 245.987 36.3331 245.987 35.073V4.34954C245.989 3.06412 245.419 2.12497 244.431 1.35973ZM37.6423 14.557C36.1845 11.4185 34.5781 8.32911 31.884 6.08082C29.0175 3.65861 25.3826 2.20087 21.626 2.20087C11.6415 2.20087 7.16702 11.2209 7.16702 20.0939C7.16702 28.6712 11.4438 37.345 21.0821 37.345C25.011 37.345 28.8436 35.6406 31.2642 32.5496V25.6292C31.2642 23.7509 30.646 22.5414 29.1882 21.4299H39.3957C38.3079 22.6647 37.6423 23.9248 37.6423 25.6292V32.5496C32.9702 36.9007 27.1629 39.568 20.7121 39.568C9.31886 39.568 0 31.1899 0 19.5247C0 7.93384 9.19396 0 20.4402 0C27.4348 0 33.0935 2.57084 37.6423 7.73621V14.557ZM62.6533 1.35973H72.2678C70.9571 2.3226 70.5128 3.41039 70.5128 5.01676V27.4348C70.5128 33.5868 77.7289 36.6035 83.0191 36.6035C88.2098 36.6035 94.9816 33.5647 94.9816 27.5582V5.01676C94.9816 3.50841 94.61 2.47122 93.5981 1.35973H98.8378C97.7753 2.44751 97.3801 3.53371 97.3801 5.01676V27.5582C97.3801 35.6643 87.8161 38.7775 81.1914 38.7775C74.3707 38.7775 64.4099 35.7639 64.4099 27.4348V5.01676C64.4083 3.4847 63.7901 2.3479 62.6533 1.35973ZM158.942 14.6803C157.659 11.4423 156.15 8.60106 153.505 6.25316C150.664 3.73134 147.203 2.15026 143.374 2.15026C133.489 2.15026 128.421 10.8003 128.421 19.7729C128.421 28.793 133.686 37.3197 143.448 37.3197C150.714 37.3197 155.905 32.2034 158.944 26.0482V32.7219C154.424 37.1964 148.59 39.47 142.213 39.47C130.398 39.47 121.55 31.8334 121.55 19.6496C121.55 7.8121 130.051 0.0268876 141.644 0.0268876C148.069 0.0268876 154.296 2.25145 158.942 6.6753V14.6803ZM220.929 14.6803C219.645 11.4423 218.133 8.60106 215.491 6.25316C212.65 3.73134 209.189 2.15026 205.36 2.15026C195.472 2.15026 190.43 10.8003 190.43 19.7729C190.43 28.793 195.669 37.3197 205.434 37.3197C212.701 37.3197 217.913 32.2034 220.93 26.0482V32.7219C216.407 37.1964 210.598 39.47 204.199 39.47C192.384 39.47 183.538 31.8334 183.538 19.6496C183.538 7.8121 192.039 0.0268876 203.628 0.0268876C210.054 0.0268876 216.283 2.25145 220.93 6.6753L220.929 14.6803Z" fill="#E8E8E8"/>
</g>
<defs>
<clipPath id="clip0_33_598">
<rect width="253.333" height="40" fill="white"/>
</clipPath>
</defs>
</svg>
