<svg width="256" height="40" viewBox="0 0 256 40" fill="none" xmlns="http://www.w3.org/2000/svg">
<path d="M217.347 38.8537V31.4258H195.955V22.8551H213.069V15.4272H195.955V8.57066H215.636V0.857066H188.253V38.8537H217.347ZM228.186 0.857066V38.8537H255.853V31.4258H235.887V0.857066H228.186ZM47.349 0.857066V38.8537H55.0502V22.8551H73.0198V38.8537H80.437V0.857066H73.0198V15.4272H55.0502V0.857066H47.349ZM124.076 38.8537H132.348L114.949 0.857066H104.966L87.8519 38.8537H95.8395L99.8316 30.283H120.084L124.076 38.8537ZM139.765 0.857066V38.8537H147.466V11.4276L168.002 38.8537H173.992V0.857066H166.291V23.7122L149.178 0.857066H139.765ZM30.8055 25.9977C29.7728 27.982 28.2158 29.6442 26.3045 30.8029C24.3932 31.9616 22.2009 32.5723 19.9667 32.5685C13.0594 32.5626 7.48547 26.9809 7.41653 19.9982C7.48547 13.2095 13.0594 7.6267 19.9667 7.7136C24.66 7.6267 28.7721 10.2658 30.8055 14.2844L37.6511 10.5705C34.1427 4.29366 27.5337 0.0511859 19.9667 0C8.8831 0.0511859 -0.0767391 9.02538 0.000511114 19.9982C-0.0779276 31.1651 8.88191 40.1381 19.9667 39.9964C27.5539 40.1381 34.1784 35.873 37.6511 29.7116L30.8055 25.9977Z" fill="#E8E8E8"/>
</svg>
