<svg width="222" height="40" viewBox="0 0 222 40" fill="none" xmlns="http://www.w3.org/2000/svg">
<path fill-rule="evenodd" clip-rule="evenodd" d="M189.534 1.57424L191.229 1.63356C192.388 1.63356 193.235 1.67863 193.711 1.75219C194.2 1.82692 194.557 1.97521 194.796 2.16858C195.109 2.3916 195.315 2.77835 195.389 3.29795C195.45 3.83297 195.493 4.87218 195.493 6.43218V29.3505L172.746 0.580113H160.639V1.57542H165.261L166.313 2.27297V34.9072C166.313 34.9807 166.299 35.0697 166.286 35.1432C166.273 35.2168 166.256 35.2773 166.256 35.3212C166.138 36.6 165.884 37.4732 165.512 37.9512C165.142 38.4103 164.161 38.6346 162.571 38.5907H157.831L143.138 0H142.32L140.45 5.21384L130.035 34.2072C129.857 34.7423 129.662 35.2334 129.514 35.6344C129.366 36.0496 129.203 36.4221 129.053 36.7187C128.578 37.6547 128.014 38.2182 127.345 38.3961C126.825 38.5302 125.993 38.6049 124.835 38.6049V38.5907H119.161V1.57424H124.837V0.578927H113.485L101.555 29.8855L88.8026 0.578927H77.9119V1.57424H82.8304L83.3501 2.62887V35.0246C83.3501 36.466 83.0974 37.4459 82.5931 37.9204C82.0876 38.4092 81.1074 38.6346 79.6669 38.5895H77.6912V39.5836H90.4971V38.5895L88.8038 38.6476C86.6501 38.6476 85.3709 38.2905 84.9556 37.5633C84.5545 36.8492 84.3457 35.7673 84.3457 34.3247V33.8525V33.3911C84.3035 33.226 84.2836 33.056 84.2864 32.8857V4.79744L98.9802 38.8267L113.481 3.56487V38.5907H107.864V39.5848H136.124V38.5907L134.312 38.6488C132.901 38.6488 131.904 38.5147 131.296 38.2787C130.701 38.026 130.39 37.5645 130.39 36.9559C130.39 36.7637 130.448 36.4506 130.565 36.0223C130.687 35.5917 130.865 34.9961 131.086 34.2677L133.775 26.8414H147.118L151.618 38.5907H145.78V39.5848H173.324V38.6488C170.369 38.6488 168.601 38.3961 168.049 37.8611C167.517 37.3415 167.233 35.5158 167.233 32.3958V3.32641L196.027 39.8802H196.368V6.49149C196.368 5.00623 196.398 4.04058 196.428 3.56487C196.458 3.10458 196.593 2.71784 196.786 2.45092C196.815 2.45092 196.859 2.42127 196.873 2.39161C196.899 2.34818 196.929 2.30795 196.964 2.27178C197.156 2.00486 197.483 1.82692 197.958 1.75219C198.42 1.67863 199.237 1.6039 200.41 1.57424H202.044V0.578927H189.533L189.534 1.57424ZM140.448 25.845H134.132L140.27 8.54144L140.448 9.00173L146.76 25.8461L140.448 25.845ZM222 1.57424V0.578927H204.811V1.57424H210.47V38.5907H204.811V39.5848H222V38.5907H216.324V1.57424H222ZM74.0198 38.7081C73.767 38.7817 73.5451 38.8267 73.3505 38.8267C73.2319 38.8564 73.1132 38.8872 72.9945 38.8872H72.5923C71.3155 38.8872 70.4682 38.1138 70.0968 36.6C69.7254 35.0851 69.4727 33.3306 69.3089 31.3399C69.2793 31.1478 69.2354 30.9532 69.2199 30.761C69.2045 30.5688 69.1903 30.36 69.1903 30.1679C69.0886 28.8155 68.9051 27.4705 68.6409 26.1403C68.3881 24.8496 67.9431 23.7926 67.319 22.9776C66.5477 21.923 65.5058 21.1223 64.229 20.573C62.9522 20.0214 61.094 19.5765 58.6721 19.2348C58.792 19.2348 58.8952 19.2194 58.9984 19.2052C59.1015 19.1868 59.2059 19.1769 59.3105 19.1755C62.0896 18.79 64.6147 17.9429 66.9179 16.6653C69.2199 15.3722 70.3638 13.085 70.3638 9.8179C70.3638 6.50572 69.2199 4.18768 66.9476 2.89697C64.674 1.58966 62.1631 0.847031 59.4292 0.697556C59.1843 0.655451 58.936 0.635594 58.6875 0.638237C58.449 0.638237 58.1975 0.608585 57.9744 0.578927H37.7972V1.57424H43.4716V38.5907H33.9787L19.2991 0H18.4827L16.6102 5.21384L6.19531 34.2072C6.00189 34.7423 5.8239 35.2334 5.67557 35.6344C5.52725 36.0496 5.36349 36.4221 5.20093 36.7187C4.74052 37.6547 4.17569 38.2182 3.50763 38.3961C2.85381 38.561 1.67906 38.6346 0 38.5907V39.5848H12.272V38.5907L10.4588 38.6488C9.06217 38.6488 8.0666 38.5147 7.45905 38.2787C6.84913 38.026 6.55248 37.5645 6.55248 36.9559C6.55248 36.7637 6.61181 36.4506 6.73047 36.0223C6.83371 35.5917 7.01289 34.9961 7.25021 34.2677L9.93908 26.8414H23.2825L27.7846 38.5907H21.931V39.5848H55.2262V38.5907H49.1946V19.6951L51.4824 19.7556C53.5922 19.7556 55.3603 19.8873 56.7724 20.1708C58.5843 20.5137 59.8326 21.0926 60.4865 21.8945C61.6458 23.3193 62.4479 25.845 62.8787 29.4691C62.9534 29.9306 63.027 30.4051 63.0567 30.8797C63.1017 31.3411 63.1599 31.8323 63.2346 32.3353C63.5467 35.1741 64.2599 37.1801 65.3741 38.3083C66.4729 39.4211 68.2706 40 70.7222 40C71.3463 40 71.9254 39.9727 72.4451 39.9122C72.9649 39.8517 73.4846 39.7343 73.9901 39.586C74.2286 39.586 74.4517 39.5421 74.6736 39.4674C74.9018 39.3869 75.1249 39.2926 75.3417 39.185L74.9857 38.4115C74.5989 38.5302 74.2713 38.6346 74.0198 38.7081ZM16.6102 25.845H10.2962L16.4322 8.54144L16.6102 9.00173L22.9242 25.8461L16.6102 25.845ZM53.9921 18.6559C53.1745 18.7295 52.3427 18.7745 51.5251 18.79C50.723 18.8054 49.9363 18.8054 49.1935 18.7603V1.57424L51.2439 1.63356C53.4878 1.63356 55.3294 1.7071 56.7712 1.87081C57.6326 1.97521 58.3458 2.09384 58.9106 2.24213C60.4259 2.65852 61.6743 3.50437 62.6402 4.79744C62.9973 5.25773 63.3082 5.82241 63.561 6.49149C63.8137 7.14514 64.0226 7.81304 64.1709 8.48212C64.2006 8.7787 64.2445 9.10493 64.2896 9.41812C64.3192 9.7147 64.3489 10.0113 64.3489 10.2948C64.3489 13.3982 63.2643 15.5383 61.0952 16.6677C59.7275 17.3759 58.2742 17.9051 56.7712 18.2419C55.8646 18.4483 54.9426 18.5812 53.9921 18.6559Z" fill="#E8E8E8"/>
</svg>
